<?xml version="1.0" standalone="no"?>
<!DOCTYPE svg PUBLIC "-//W3C//DTD SVG 20010904//EN"
 "http://www.w3.org/TR/2001/REC-SVG-20010904/DTD/svg10.dtd">
<svg version="1.0" xmlns="http://www.w3.org/2000/svg"
 width="577.000000pt" height="433.000000pt" viewBox="0 0 577.000000 433.000000"
 preserveAspectRatio="xMidYMid meet">

<g transform="translate(0.000000,433.000000) scale(0.100000,-0.100000)"
fill="#000000" stroke="none">
<path d="M4380 4150 c0 -5 -16 -16 -35 -25 -19 -9 -39 -23 -46 -31 -6 -8 -18
-14 -26 -14 -19 0 -125 -63 -180 -107 -23 -18 -45 -33 -50 -33 -5 0 -28 -16
-52 -36 -40 -35 -41 -37 -25 -55 11 -13 24 -17 37 -13 12 4 17 2 13 -4 -12
-20 14 -23 31 -3 9 11 20 18 25 15 11 -7 10 -24 -2 -24 -12 0 -32 -15 -58 -42
-9 -10 -26 -18 -37 -18 -33 0 4 -20 40 -21 17 0 23 -3 15 -6 -8 -3 -18 -10
-21 -15 -4 -6 -44 -15 -90 -20 -67 -9 -88 -16 -106 -34 -12 -13 -31 -24 -41
-24 -11 0 -25 -7 -32 -15 -8 -10 -21 -13 -33 -9 -13 4 -17 2 -13 -5 4 -7 -1
-11 -13 -11 -12 0 -30 -9 -42 -21 -11 -11 -27 -18 -35 -15 -8 3 -14 2 -14 -3
0 -4 -14 -8 -30 -8 -17 0 -36 -6 -43 -13 -10 -10 -9 -11 3 -5 13 8 13 7 1 -8
-7 -9 -23 -17 -35 -17 -17 0 -18 2 -6 10 12 8 11 10 -7 10 -13 0 -23 4 -23 9
0 17 -30 20 -45 4 -19 -19 -11 -31 9 -14 18 15 37 6 29 -14 -3 -8 0 -15 6 -15
6 0 11 -5 11 -11 0 -5 -10 -9 -22 -7 -16 2 -22 -2 -20 -12 3 -11 -1 -11 -16 3
-21 19 -43 24 -24 5 7 -7 12 -17 12 -22 -1 -12 -67 -46 -91 -47 -8 0 -6 -4 6
-9 17 -7 17 -9 3 -9 -20 -1 -25 -21 -6 -21 6 0 9 -2 7 -4 -3 -3 -31 -1 -64 3
-41 6 -85 4 -140 -5 -44 -8 -82 -14 -85 -14 -3 0 2 -5 10 -10 11 -8 9 -9 -10
-5 -18 4 -37 -2 -65 -22 -22 -16 -56 -35 -75 -42 -78 -30 -141 -63 -146 -76
-3 -7 -17 -16 -31 -20 -30 -7 -123 -98 -123 -120 0 -29 -28 -69 -90 -129 -33
-32 -60 -60 -58 -61 6 -7 135 32 223 67 28 11 60 22 73 25 12 3 22 10 22 16 0
11 30 36 44 37 5 0 3 -6 -3 -14 -9 -11 -1 -10 36 3 26 9 54 22 61 29 16 15 68
16 78 1 3 -6 -1 -10 -12 -9 -37 4 -65 0 -60 -9 3 -5 34 -7 69 -5 59 4 65 2 77
-21 7 -13 17 -22 21 -19 5 3 14 -4 21 -16 14 -22 28 -26 28 -9 0 40 131 255
207 339 89 99 401 281 593 347 30 10 75 30 100 45 25 14 56 29 70 33 14 4 39
18 57 31 17 13 37 24 43 24 6 0 37 13 69 30 61 30 138 109 119 121 -6 4 -1 23
16 52 42 70 48 197 11 197 -8 0 -15 -4 -15 -10z m-25 -142 c-10 -44 -36 -88
-53 -88 -9 0 -5 10 11 30 14 16 28 43 32 60 4 16 9 30 12 30 2 0 1 -15 -2 -32z
m-95 -40 c0 -27 -16 -55 -26 -46 -5 6 16 68 23 68 2 0 3 -10 3 -22z m-93 -38
c-3 -13 0 -20 8 -20 8 0 17 -4 20 -10 4 -6 -1 -7 -12 -3 -16 6 -17 5 -3 -13 8
-10 20 -22 25 -26 6 -4 2 -8 -7 -8 -10 0 -18 6 -18 14 0 8 -7 16 -15 20 -21 8
-19 66 3 66 2 0 2 -9 -1 -20z m-94 -50 c3 -11 1 -20 -4 -20 -5 0 -9 9 -9 20 0
11 2 20 4 20 2 0 6 -9 9 -20z m55 -25 c-3 -3 -9 2 -12 12 -6 14 -5 15 5 6 7
-7 10 -15 7 -18z m62 -41 c0 -8 -19 -13 -24 -6 -3 5 1 9 9 9 8 0 15 -2 15 -3z
m-55 -24 c-3 -5 -20 -10 -37 -10 -28 0 -29 -2 -17 -17 13 -16 12 -17 -3 -4
-24 18 -23 29 5 34 41 8 58 7 52 -3z m-1118 -536 c-3 -3 -12 -4 -19 -1 -8 3
-5 6 6 6 11 1 17 -2 13 -5z m-27 -18 c0 -3 -4 -8 -10 -11 -5 -3 -10 -1 -10 4
0 6 5 11 10 11 6 0 10 -2 10 -4z m-10 -46 c-14 -4 -32 -8 -40 -9 -13 -1 -13 0
0 9 8 5 26 9 40 9 l25 -1 -25 -8z m-101 -24 c-2 -2 -17 -6 -34 -10 -22 -5 -26
-4 -15 4 14 9 59 15 49 6z m166 -45 c3 -5 0 -13 -6 -17 -7 -4 -9 -3 -5 4 3 6
-3 12 -16 15 -23 4 -23 4 -1 6 12 0 24 -3 28 -8z m-19 -36 c18 -9 23 -15 12
-15 -9 0 -23 -3 -32 -6 -12 -4 -16 0 -16 15 0 25 0 25 36 6z"/>
<path d="M4421 4013 c-1 -6 -4 -20 -7 -30 -5 -17 -5 -17 6 0 6 10 9 23 6 30
-3 9 -5 9 -5 0z"/>
<path d="M3882 3830 c-18 -16 -37 -30 -42 -30 -13 0 -140 -69 -169 -91 -29
-23 -25 -24 25 -3 21 9 50 18 64 20 56 9 68 14 66 30 0 9 5 19 13 22 8 3 11 0
7 -7 -5 -7 1 -11 16 -11 18 0 20 2 8 10 -12 8 -12 10 5 10 17 0 17 2 5 10 -12
8 -10 10 8 10 13 0 20 -4 17 -10 -3 -5 3 -10 14 -10 14 0 19 5 15 15 -5 11 1
13 30 8 l37 -6 -28 32 c-34 39 -50 39 -91 1z m-85 -86 c-3 -3 -12 -4 -19 -1
-8 3 -5 6 6 6 11 1 17 -2 13 -5z"/>
<path d="M3478 3583 c7 -3 16 -2 19 1 4 3 -2 6 -13 5 -11 0 -14 -3 -6 -6z"/>
<path d="M3160 3492 c-19 -9 -37 -20 -40 -23 -3 -4 -21 -14 -40 -23 -19 -9
-48 -24 -65 -35 -16 -10 -33 -16 -37 -14 -5 2 -8 0 -8 -6 0 -5 -14 -12 -30
-16 -17 -4 -52 -26 -78 -50 -26 -23 -58 -53 -72 -64 l-25 -22 35 17 c19 9 54
34 77 55 24 22 52 39 63 39 12 0 18 4 15 10 -3 5 0 7 8 4 8 -3 18 -1 22 5 3 6
16 11 27 11 12 0 18 3 15 6 -4 4 19 20 51 37 31 16 64 35 72 42 8 8 27 17 43
20 15 4 27 11 27 16 0 13 -20 10 -60 -9z"/>
<path d="M3018 2973 c7 -3 16 -2 19 1 4 3 -2 6 -13 5 -11 0 -14 -3 -6 -6z"/>
<path d="M2365 2805 c-16 -7 -29 -17 -28 -22 1 -4 -20 -13 -45 -19 -44 -10
-91 -30 -102 -43 -3 -3 -23 -15 -44 -26 -45 -23 -101 -92 -87 -109 11 -14 -1
-46 -27 -69 -11 -11 -18 -25 -15 -32 2 -8 -5 -20 -16 -27 -12 -7 -21 -23 -21
-35 0 -12 -5 -25 -10 -28 -6 -4 -17 -22 -24 -40 -10 -22 -26 -39 -48 -48 -37
-16 -118 -83 -118 -98 0 -5 -9 -18 -20 -29 -12 -12 -17 -26 -13 -36 4 -11 2
-15 -8 -12 -7 2 -23 -9 -34 -26 -12 -17 -37 -54 -57 -82 -51 -73 -70 -113
-116 -249 -43 -128 -58 -209 -66 -346 -6 -95 -24 -159 -61 -209 -6 -8 -20 -35
-30 -60 -11 -25 -58 -97 -105 -160 -47 -63 -89 -124 -95 -136 -5 -11 -25 -38
-43 -58 -18 -21 -44 -56 -58 -79 -15 -23 -47 -63 -71 -89 -25 -25 -42 -51 -39
-57 4 -6 -16 -38 -45 -72 -29 -33 -53 -69 -54 -80 -1 -11 -18 -37 -38 -57 -40
-41 -45 -52 -22 -52 21 0 19 -13 -5 -35 -11 -10 -20 -22 -20 -28 0 -10 42 -5
74 8 11 5 1 -11 -22 -34 -23 -24 -39 -47 -36 -52 3 -5 10 -7 15 -4 5 3 6 -1 3
-9 -3 -9 -2 -16 3 -16 19 0 118 41 121 50 2 6 11 10 21 10 18 0 215 121 241
148 8 8 -1 5 -20 -7 l-35 -23 29 25 c15 13 35 24 44 23 9 0 17 4 17 9 0 13
235 241 235 228 0 -11 -133 -141 -195 -191 -22 -18 -35 -32 -30 -32 17 0 179
150 301 281 92 96 132 148 174 223 30 54 92 153 137 221 45 67 109 168 142
223 58 96 61 105 61 165 0 134 61 389 121 510 48 95 92 150 181 223 l81 67
196 -2 c306 -2 396 9 636 84 139 43 149 43 262 -6 54 -24 115 -56 137 -71 21
-15 42 -25 47 -22 14 8 10 62 -7 96 -14 26 -20 29 -46 24 -21 -4 -28 -2 -26 6
3 7 -14 24 -37 39 -22 14 -63 51 -89 82 -27 31 -52 55 -56 52 -15 -9 -23 17
-9 26 10 6 5 9 -16 8 -16 -1 -58 6 -91 15 -68 18 -154 22 -139 7 6 -5 17 -11
25 -13 8 -2 22 -12 31 -22 12 -15 30 -19 77 -20 60 -1 61 -1 55 -26 -3 -14 -7
-26 -9 -28 -1 -2 4 -19 12 -37 25 -61 20 -67 -36 -38 -27 14 -61 26 -75 26
-14 0 -25 3 -25 7 0 5 -16 14 -35 20 -19 6 -35 16 -35 21 0 5 -14 9 -31 9 -28
0 -59 19 -59 36 0 13 -51 54 -61 48 -5 -3 -16 0 -24 6 -12 10 -15 9 -15 -3 0
-12 -8 -15 -31 -12 -17 2 -37 9 -45 16 -8 6 -14 8 -14 5 0 -4 -7 -1 -15 8 -16
16 -21 41 -6 31 5 -3 12 -1 16 5 3 6 -3 10 -15 10 -17 0 -21 -5 -18 -27 3 -24
0 -28 -19 -26 -15 2 -23 -3 -23 -13 0 -10 -5 -12 -12 -7 -7 4 -29 8 -48 9 -53
2 -56 4 -40 14 17 11 19 10 -49 13 -30 2 -40 9 -58 45 -1 2 -10 -1 -21 -7 -26
-14 -82 -3 -82 15 0 17 -22 18 -37 3 -6 -6 -19 -9 -29 -6 -16 4 -16 5 2 6 12
0 27 8 34 16 10 12 8 14 -9 10 -12 -2 -25 -6 -30 -10 -5 -3 -17 2 -25 11 -14
14 -17 14 -22 1 -3 -9 -12 -18 -19 -21 -9 -3 -12 0 -8 10 7 19 -14 18 -25 -2
-8 -15 -10 -15 -15 0 -7 17 1 46 12 46 3 0 19 11 35 25 32 27 27 30 -19 10z
m-115 -119 c0 -3 -4 -8 -10 -11 -5 -3 -10 -1 -10 4 0 6 5 11 10 11 6 0 10 -2
10 -4z m257 -32 c-3 -3 -12 -4 -19 -1 -8 3 -5 6 6 6 11 1 17 -2 13 -5z m89 -7
c4 -4 -10 -7 -32 -6 -30 0 -34 2 -19 8 22 9 41 8 51 -2z m-137 -20 l-24 -10
23 -4 c12 -3 22 -8 22 -12 0 -13 -24 -31 -42 -31 -10 0 -18 -4 -18 -10 0 -5
11 -10 24 -10 13 0 26 -6 29 -14 4 -9 19 -14 41 -13 20 1 42 -5 49 -13 6 -8 8
-12 3 -8 -5 4 -17 3 -27 -3 -13 -6 -19 -6 -19 1 0 5 -7 10 -15 10 -8 0 -12 -6
-9 -14 6 -16 -28 -26 -107 -30 -28 -1 -54 -7 -57 -13 -9 -14 -90 -36 -107 -29
-8 3 -24 -3 -37 -14 -13 -10 -42 -21 -64 -25 -29 -5 -35 -4 -24 4 13 10 13 11
0 11 -16 1 -14 3 38 39 12 9 18 21 14 33 -4 17 -1 19 15 14 14 -4 20 -2 20 9
0 11 -6 13 -21 9 -18 -6 -19 -5 -7 10 7 9 19 16 26 16 6 0 20 9 30 20 11 12
31 20 49 20 l31 -1 -34 -28 c-21 -17 -30 -31 -23 -35 10 -6 52 33 86 79 7 10
19 16 27 13 15 -6 83 25 94 41 3 6 13 7 22 4 13 -5 12 -8 -8 -16z m221 -17
c-22 -13 -5 -23 19 -11 17 10 23 7 37 -14 16 -25 44 -34 44 -15 0 6 5 10 11
10 6 0 9 -10 7 -22 -2 -18 -11 -24 -37 -26 -27 -3 -33 0 -28 12 5 12 0 16 -19
16 -14 0 -22 4 -19 10 3 6 -3 10 -14 10 -11 0 -23 5 -27 11 -7 11 12 29 31 29
6 0 3 -4 -5 -10z m-157 -7 c-7 -2 -19 -2 -25 0 -7 3 -2 5 12 5 14 0 19 -2 13
-5z m108 -3 c5 0 9 -4 9 -9 0 -5 -11 -8 -25 -7 -14 0 -25 7 -25 15 0 8 6 11
16 7 9 -3 20 -6 25 -6z m-121 -36 c0 -8 -5 -12 -10 -9 -6 4 -8 11 -5 16 9 14
15 11 15 -7z m53 9 c-7 -2 -19 -2 -25 0 -7 3 -2 5 12 5 14 0 19 -2 13 -5z
m107 -18 c-7 -8 -16 -12 -21 -9 -16 9 -10 20 12 21 17 2 18 -1 9 -12z m844
-41 l19 -26 -26 17 c-14 9 -28 22 -31 30 -8 22 17 7 38 -21z m47 -51 c13 -17
13 -17 -6 -3 -11 8 -22 16 -24 17 -2 2 0 3 6 3 6 0 17 -8 24 -17z m-761 -7 c0
-8 11 -23 25 -34 21 -17 34 -42 21 -42 -15 0 -66 24 -66 31 0 5 -7 9 -15 9
-19 0 -19 5 2 30 20 23 33 26 33 6z m-370 -26 c0 -5 -11 -12 -25 -16 -14 -3
-25 -11 -25 -18 0 -6 -15 -12 -33 -13 l-32 -2 29 16 c21 11 25 17 16 23 -9 6
-4 10 16 13 51 7 54 7 54 -3z m-174 -38 c-12 -13 -17 -13 -34 0 -20 13 -19 14
14 14 30 0 32 -2 20 -14z m-168 -31 c3 -9 -1 -11 -16 -7 -11 4 -23 2 -27 -4
-7 -12 -35 -14 -35 -2 0 12 41 31 59 29 8 -1 16 -8 19 -16z m-102 -18 c-10
-11 -37 -12 -30 -2 3 5 12 9 21 9 9 0 13 -3 9 -7z m349 -3 c3 -5 -3 -10 -14
-10 -10 0 -26 -3 -35 -6 -9 -3 -16 -1 -16 4 0 6 10 13 23 15 12 2 25 5 29 6 4
0 10 -3 13 -9z m-78 -26 c-3 -3 -12 -4 -19 -1 -8 3 -5 6 6 6 11 1 17 -2 13 -5z
m-90 -20 c-3 -3 -12 -4 -19 -1 -8 3 -5 6 6 6 11 1 17 -2 13 -5z m-174 -11 c-7
-2 -21 -2 -30 0 -10 3 -4 5 12 5 17 0 24 -2 18 -5z m161 -72 c-7 -8 -33 33
-27 43 3 5 12 -2 19 -15 7 -13 10 -26 8 -28z m-104 -16 c0 -8 5 -15 10 -15 6
0 10 5 10 10 0 6 5 10 10 10 6 0 10 -6 10 -14 0 -15 -62 -28 -88 -18 -14 5
-12 7 8 12 14 4 24 12 23 18 -2 7 2 12 7 12 6 0 10 -7 10 -15z m-80 -15 c0 -5
-4 -10 -10 -10 -5 0 -10 5 -10 10 0 6 5 10 10 10 6 0 10 -4 10 -10z m164 4
c25 -10 19 -24 -9 -22 -25 2 -31 9 -18 21 8 8 8 8 27 1z m-824 -1578 c0 -3
-15 -15 -32 -27 l-33 -22 25 26 c23 24 40 33 40 23z m12 -71 c-22 -19 -53 -45
-69 -57 -15 -11 1 6 37 40 36 33 67 59 68 57 2 -2 -14 -20 -36 -40z"/>
<path d="M2354 2548 c-10 -16 4 -22 28 -11 l22 10 -22 5 c-12 4 -25 2 -28 -4z"/>
<path d="M2310 2530 c0 -5 7 -10 16 -10 8 0 12 5 9 10 -3 6 -10 10 -16 10 -5
0 -9 -4 -9 -10z"/>
<path d="M2428 2513 c6 -2 18 -2 25 0 6 3 1 5 -13 5 -14 0 -19 -2 -12 -5z"/>
<path d="M1600 2740 c-19 -12 57 -13 115 -1 36 8 34 9 -30 10 -38 0 -77 -4
-85 -9z"/>
<path d="M1558 2723 c-10 -3 -18 -9 -18 -15 0 -6 -3 -8 -7 -5 -7 8 -33 -11
-33 -25 0 -11 51 -5 129 16 69 19 78 29 21 23 -25 -2 -52 -1 -60 3 -8 3 -23 5
-32 3z"/>
<path d="M1419 2629 c-22 -23 -38 -43 -36 -46 8 -8 267 10 267 18 0 5 -19 10
-42 10 l-43 1 50 13 50 13 -105 2 c-58 1 -99 4 -92 7 6 2 12 9 12 14 0 19 -23
7 -61 -32z"/>
<path d="M1590 2570 l-25 -8 27 -1 c15 -1 30 4 33 9 7 11 0 11 -35 0z"/>
<path d="M1378 2558 c12 -11 190 -14 186 -3 -3 6 -45 10 -99 10 -52 0 -91 -3
-87 -7z"/>
<path d="M1640 2560 c0 -5 5 -10 11 -10 5 0 7 5 4 10 -3 6 -8 10 -11 10 -2 0
-4 -4 -4 -10z"/>
<path d="M1765 2534 c-17 -7 -46 -14 -65 -15 l-35 -1 30 -8 c83 -23 156 -40
170 -40 23 0 18 16 -10 28 -15 7 -22 17 -19 25 7 20 -34 26 -71 11z"/>
<path d="M1403 2533 c20 -2 54 -2 75 0 20 2 3 4 -38 4 -41 0 -58 -2 -37 -4z"/>
<path d="M3270 2530 c0 -5 4 -10 9 -10 6 0 13 5 16 10 3 6 -1 10 -9 10 -9 0
-16 -4 -16 -10z"/>
<path d="M1398 2503 c6 -2 18 -2 25 0 6 3 1 5 -13 5 -14 0 -19 -2 -12 -5z"/>
</g>
</svg>
